<svg width="24" height="24" viewBox="0 0 24 24" fill="none" xmlns="http://www.w3.org/2000/svg">
<path d="M14.416 9.75898C14.4146 9.75758 14.4137 9.75581 14.4133 9.75389C14.4129 9.75197 14.4131 9.74998 14.4139 9.74817C14.4146 9.74636 14.4159 9.74481 14.4175 9.74371C14.4191 9.74261 14.421 9.74201 14.423 9.74198L20.749 9.75198L20.759 16.102C20.759 16.11 20.748 16.115 20.742 16.109L18.637 13.979L14.028 18.588C13.8388 18.7723 13.5851 18.8755 13.321 18.8755C13.0569 18.8755 12.8032 18.7723 12.614 18.588L11.907 17.881C11.507 17.481 11.527 16.844 11.925 16.447L16.502 11.869L14.416 9.75898ZM10.515 13.66C10.5164 13.6614 10.5174 13.6633 10.5178 13.6653C10.5181 13.6673 10.5178 13.6694 10.5169 13.6713C10.5161 13.6731 10.5146 13.6747 10.5129 13.6757C10.5111 13.6767 10.509 13.6772 10.507 13.677L4.182 13.667L4.172 7.31698C4.172 7.30798 4.182 7.30398 4.189 7.30998L6.294 9.43998L10.902 4.83098C11.0912 4.64663 11.3449 4.54346 11.609 4.54346C11.8731 4.54346 12.1268 4.64663 12.316 4.83098L13.023 5.53798C13.423 5.93798 13.403 6.57398 13.005 6.97198L8.428 11.55L10.515 13.66Z" stroke="#81848E" stroke-width="1.6"/>
</svg>
