<svg width="24" height="24" viewBox="0 0 24 24" fill="none" xmlns="http://www.w3.org/2000/svg">
<path fill-rule="evenodd" clip-rule="evenodd" d="M11.034 3.09801C11.397 2.24801 12.604 2.24801 12.966 3.09801L15.11 8.12801L20.597 8.59101C21.524 8.66901 21.899 9.82601 21.194 10.433L17.031 14.018L18.281 19.345C18.494 20.249 17.515 20.963 16.719 20.485L12 17.654L7.28103 20.485C6.48503 20.963 5.50703 20.249 5.71903 19.345L6.96903 14.018L2.80603 10.433C2.10103 9.82601 2.47603 8.66901 3.40303 8.59101L8.89003 8.12801L11.034 3.09801ZM12 5.16801L10.3 9.15501C10.2251 9.33049 10.1038 9.48224 9.94907 9.59394C9.79438 9.70564 9.61217 9.77308 9.42203 9.78901L5.08803 10.155L8.37703 12.987C8.67303 13.242 8.80303 13.641 8.71403 14.022L7.72403 18.236L11.46 15.996C11.792 15.796 12.208 15.796 12.54 15.996L16.275 18.236L15.286 14.022C15.196 13.642 15.326 13.242 15.623 12.987L18.912 10.155L14.578 9.78901C14.3879 9.77308 14.2057 9.70564 14.051 9.59394C13.8963 9.48224 13.775 9.33049 13.7 9.15501L12 5.16701V5.16801Z" fill="#81848E"/>
</svg>
