<svg width="24" height="24" viewBox="0 0 24 24" fill="none" xmlns="http://www.w3.org/2000/svg">
<path fill-rule="evenodd" clip-rule="evenodd" d="M15.382 8.618L10.702 10.624C10.6669 10.6394 10.6389 10.6677 10.624 10.703L8.61801 15.382L13.298 13.376C13.3332 13.3606 13.3611 13.3323 13.376 13.297L15.382 8.618ZM16.206 6.416C17.076 6.042 17.958 6.923 17.584 7.794L14.939 13.967C14.7519 14.4038 14.4038 14.7519 13.967 14.939L7.79501 17.584C6.92301 17.958 6.04201 17.077 6.41501 16.206L9.06101 10.033C9.24814 9.59619 9.59619 9.24814 10.033 9.061L16.206 6.416Z" fill="#81848E"/>
<path d="M13 12C13 12.2652 12.8946 12.5196 12.7071 12.7071C12.5196 12.8946 12.2652 13 12 13C11.7348 13 11.4804 12.8946 11.2929 12.7071C11.1054 12.5196 11 12.2652 11 12C11 11.7348 11.1054 11.4804 11.2929 11.2929C11.4804 11.1054 11.7348 11 12 11C12.2652 11 12.5196 11.1054 12.7071 11.2929C12.8946 11.4804 13 11.7348 13 12Z" fill="#81848E"/>
<path fill-rule="evenodd" clip-rule="evenodd" d="M12 20.4C14.2278 20.4 16.3644 19.515 17.9397 17.9397C19.515 16.3644 20.4 14.2278 20.4 12C20.4 9.77218 19.515 7.63561 17.9397 6.0603C16.3644 4.485 14.2278 3.6 12 3.6C9.77218 3.6 7.63561 4.485 6.0603 6.0603C4.485 7.63561 3.6 9.77218 3.6 12C3.6 14.2278 4.485 16.3644 6.0603 17.9397C7.63561 19.515 9.77218 20.4 12 20.4ZM12 22C17.523 22 22 17.523 22 12C22 6.477 17.523 2 12 2C6.477 2 2 6.477 2 12C2 17.523 6.477 22 12 22Z" fill="#81848E"/>
</svg>
