<svg width="24" height="24" viewBox="0 0 24 24" fill="none" xmlns="http://www.w3.org/2000/svg">
<path d="M18.573 13.128C18.4372 13.0185 18.3296 12.8782 18.2592 12.7187C18.1887 12.5591 18.1575 12.3851 18.168 12.211C18.1727 12.0804 18.1727 11.9496 18.168 11.819C18.156 11.449 18.295 11.079 18.59 10.856L19.848 9.89999C19.9223 9.84062 19.9734 9.75697 19.9922 9.66372C20.0111 9.57046 19.9965 9.47356 19.951 9.38999L18.305 6.61999C18.202 6.43999 17.986 6.37999 17.801 6.43999L16.269 7.03899C15.949 7.16399 15.589 7.10999 15.297 6.92899C15.165 6.84711 15.0299 6.77039 14.892 6.69899C14.574 6.53499 14.334 6.24199 14.282 5.88799L14.057 4.33999C14.0409 4.24334 13.9905 4.15573 13.915 4.09328C13.8395 4.03082 13.744 3.99769 13.646 3.99999H10.354C10.149 3.99999 9.984 4.13999 9.954 4.33999L9.728 5.88799C9.676 6.24199 9.436 6.53599 9.118 6.69999C8.98 6.77299 8.844 6.84999 8.712 6.93199C8.42 7.11199 8.062 7.16399 7.743 7.03999L6.209 6.43999C6.11732 6.40507 6.01619 6.40402 5.9238 6.43701C5.8314 6.47001 5.75382 6.53489 5.705 6.61999L4.059 9.38999C4.00808 9.47215 3.99039 9.57063 4.00953 9.66538C4.02866 9.76013 4.08319 9.84403 4.162 9.89999L5.421 10.856C5.716 11.08 5.851 11.448 5.833 11.818C5.82663 11.9389 5.8263 12.06 5.832 12.181C5.845 12.551 5.705 12.921 5.41 13.144L4.152 14.1C4.07767 14.1594 4.02661 14.243 4.00777 14.3363C3.98894 14.4295 4.00353 14.5264 4.049 14.61L5.695 17.38C5.798 17.56 6.014 17.62 6.199 17.56L7.731 16.961C8.051 16.836 8.411 16.89 8.703 17.071C8.835 17.152 8.97 17.229 9.108 17.301C9.426 17.465 9.666 17.758 9.718 18.112L9.943 19.66C9.984 19.86 10.149 20 10.354 20H13.646C13.851 20 14.026 19.86 14.046 19.66L14.272 18.112C14.324 17.758 14.564 17.464 14.882 17.3C15.02 17.227 15.156 17.15 15.288 17.068C15.58 16.888 15.938 16.836 16.257 16.96L17.791 17.56C17.976 17.63 18.192 17.56 18.295 17.38L19.941 14.61C19.9919 14.5278 20.0096 14.4293 19.9905 14.3346C19.9713 14.2398 19.9168 14.156 19.838 14.1L18.573 13.128ZM12 15C10.303 15 8.914 13.65 8.914 12C8.914 10.35 10.303 8.99999 12 8.99999C13.697 8.99999 15.086 10.35 15.086 12C15.086 13.65 13.697 15 12 15Z" stroke="#81848E" stroke-width="1.7"/>
</svg>
